<?xml version="1.0" standalone="no"?><svg xmlns="http://www.w3.org/2000/svg" viewBox="0 0 1440 320"><path fill="#f3f4f5" fill-opacity="0.25" d="M0,64L34.3,101.3C68.6,139,137,213,206,234.7C274.3,256,343,224,411,202.7C480,181,549,171,617,144C685.7,117,754,75,823,74.7C891.4,75,960,117,1029,144C1097.1,171,1166,181,1234,170.7C1302.9,160,1371,128,1406,112L1440,96L1440,320L1405.7,320C1371.4,320,1303,320,1234,320C1165.7,320,1097,320,1029,320C960,320,891,320,823,320C754.3,320,686,320,617,320C548.6,320,480,320,411,320C342.9,320,274,320,206,320C137.1,320,69,320,34,320L0,320Z"></path></svg>